# xmcd CD database file
#
# Track frame offsets:
#	223
#	26263
#	57596
#	87344
#	106086
#	141585
#	174564
#	212920
#	249397
#
# Disc length: 3637 seconds
#
# Revision: 0
# Processed by: cddbd v1.5.1PL0 Copyright (c) Steve Scherf et al.
# Submitted via: CDex 1.51
#
DISCID=7c0e3309
DTITLE=Carl Verheyen, Karl Ratzer - Real to reel
DYEAR=2000
DGENRE=Jazz
TTITLE0=Bad day for Robots
TTITLE1=The sails
TTITLE2=L.A. visit
TTITLE3=Send in the clowns
TTITLE4=Tacos for everyone
TTITLE5=Dolphin dance
TTITLE6=Loud guy blues ver. 1&2
TTITLE7=5 step snake blues
TTITLE8=Solar
EXTD=YEAR: 2000
EXTT0=
EXTT1=
EXTT2=
EXTT3=
EXTT4=
EXTT5=
EXTT6=
EXTT7=
EXTT8=
PLAYORDER=
